<?xml version="1.0"?><svg width="262.684" height="417.2" xmlns="http://www.w3.org/2000/svg">
 <defs>
  <radialGradient spreadMethod="pad" id="svg_1">
   <stop offset="0.601563" stop-color="#ffffff"/>
   <stop offset="1" stop-opacity="0.996094" stop-color="#e5e5e5"/>
  </radialGradient>
  <radialGradient r="0.883645" spreadMethod="pad" id="svg_2">
   <stop offset="0.332031" stop-color="#ffffff"/>
   <stop offset="1" stop-opacity="0.996094" stop-color="#e5e5e5"/>
  </radialGradient>
 </defs>
 <g>
  <title>Layer 1</title>
  <path fill-rule="evenodd" clip-rule="evenodd" fill="#875C2A" id="path3" d="m113.850998,85.233002c19.5,19.476997 19.598007,46.793991 34.772995,67.695999c8.656006,11.923004 22.896011,13.662003 35.665009,20.041c10.248001,5.119995 24.326004,10.455002 27.641998,22.714005c-3.962006,-0.910004 -8.134995,-6.235001 -12.929993,-6.235001c-7.113007,0 -11.856003,0.240997 -19.170013,1.781998c-12.256989,2.582001 -26.161987,-0.654007 -35.663986,-8.016998c12.903992,9.737991 27.649994,12.922989 41.905975,20.041992c13.794006,6.889008 29.081009,21 34.772003,34.294006c-6.974991,-5.49501 -17.156998,-8.018005 -25.856003,-8.018005c-6.981995,0 -21.572998,-5.475998 -24.072998,-11.578995c-0.296997,0 -0.595993,0 -0.89299,0c0.61499,7.653 15.822998,16.811005 22.289993,20.041c11.569,5.778992 20.811996,14.104004 29.869995,23.159988c8.173004,8.167999 15.533005,22.127014 20.063004,31.621002c5.199997,10.903015 9.531006,22.161011 13.373001,32.957001c-10.283005,-6.845001 -23.158997,-14.25 -35.664001,-14.25c-14.035004,0 -27.86499,-2.480988 -41.015991,-6.235992c3.792999,5.17099 11.688995,8.673004 17.832001,10.687988c3.688995,1.210022 8.636993,1.851013 12.482986,2.673004c3.723007,0.795013 9.276001,2.671997 12.928024,2.671997c6.985001,0 18.610992,7.790009 21.399979,13.361023c2.074997,4.143982 6.053009,8.27298 9.361008,11.579987c2.64299,2.639008 4.078003,7.80899 6.240997,9.796997c-5.570007,-2.710999 -9.813995,-5.345001 -16.940002,-5.345001c-7.832001,0 -14.966995,1.945007 -22.291,2.673004c-14.677994,1.458984 -30.500992,-1.347015 -43.688995,-6.234009c-12.369995,-4.584991 -16.54599,-10.880981 -21.399994,-21.378998c-5.720993,-12.371002 -10.431992,-26.825989 -15.158005,-40.083008c-11.253998,-31.571991 -21.996994,-63.242981 -32.543991,-94.863983c-2.374001,-7.117004 -4.812004,-13.903 -7.579002,-20.932999c-1.807999,-4.59201 -6.240997,-13.480011 -6.240997,-18.26001c0,-5.445999 -5.083,-19.274002 -8.025002,-22.713989c9.512001,-14.548004 19.021996,-29.097008 28.533997,-43.645004"/>
  <path fill="none" stroke="#000000" stroke-width="1.2249" stroke-linecap="square" stroke-miterlimit="10" id="path5" d="m113.850998,85.233002c24.084,24.055 20.231995,64.056 50.822006,80.166992"/>
  <path fill="none" stroke="#000000" stroke-width="1.2249" stroke-linecap="square" stroke-miterlimit="10" id="path7" d="m164.671997,165.399002c14.990997,7.664993 42.072006,11.110001 47.257996,30.285004c-10.770996,-2.471008 -18.692993,-11.029999 -32.099991,-4.45401"/>
  <path fill="none" stroke="#000000" stroke-width="1.2249" stroke-linecap="square" stroke-miterlimit="10" id="path9" d="m179.830994,191.229996c-10.563004,4.794998 -27.639008,-1.797989 -35.664001,-8.016998c7.733994,5.837006 16.23999,9.447006 24.964005,13.807007c7.910995,3.951996 17.592987,4.151993 24.966995,10.242996"/>
  <path fill="none" stroke="#000000" stroke-width="1.2249" stroke-linecap="square" stroke-miterlimit="10" id="path11" d="m194.097,207.263c10.442993,6.192993 22.584,20.559006 26.748001,30.285995c-6.975006,-5.494995 -17.156998,-8.01799 -25.856003,-8.01799c-6.981995,0 -21.572998,-5.476013 -24.072998,-11.57901c-0.296997,0 -0.595993,0 -0.893005,0c-0.156998,1.068008 0.507004,0.968002 0.893005,1.781998"/>
  <path fill="none" stroke="#000000" stroke-width="1.2249" stroke-linecap="square" stroke-miterlimit="10" id="path13" d="m170.916,219.733994c0.744003,4.507996 10.744995,11.899994 14.266006,14.251999c5.653992,3.774994 19.784988,8.352005 22.737,14.251999c2.377991,4.753006 17.385986,9.470993 17.385986,16.478012c0,1.577972 5.380005,9.383972 6.688004,10.688995c3.084,3.082001 5.327011,9.143982 7.580002,12.023987"/>
  <path fill="none" stroke="#000000" stroke-width="1.2249" stroke-linecap="square" stroke-miterlimit="10" id="path15" d="m239.572006,287.429993c1.12001,6.368988 6.018997,13.600983 8.916,19.596985c3.029007,6.27301 4.902008,12.438019 7.132004,18.705017c-8.082001,-5.380005 -17.569,-11.063995 -26.748993,-13.360016c-9.31601,-2.329987 -20.828003,-1.487976 -30.315002,-2.673981"/>
  <path fill="none" stroke="#000000" stroke-width="1.2249" stroke-linecap="square" stroke-miterlimit="10" id="path17" d="m198.554993,309.696991c-6.449005,-0.385986 -13.520996,-2.712006 -19.615005,-4.451996c6.785004,9.248993 21.427002,11.075989 32.098999,13.360992c14.011002,2.998993 26.416,6.468994 34.77301,18.70401"/>
  <path fill="none" stroke="#000000" stroke-width="1.2249" stroke-linecap="square" stroke-miterlimit="10" id="path19" d="m245.811996,337.311005c3.630005,5.44101 9.23201,14.898987 13.374008,18.705994c-9.42601,-4.583008 -20.702011,-7.953003 -32.544006,-4.006989c-10.395004,3.461975 -25.074997,1.548981 -35.220993,-1.338013"/>
  <path fill="none" stroke="#000000" stroke-width="1.2249" stroke-linecap="square" stroke-miterlimit="10" id="path21" d="m191.421005,350.671997c-6.377991,1.075989 -16.673996,-3.876007 -22.291,-6.681c-6.230011,-3.112 -7.257004,-7.695984 -11.145004,-11.57901c-3.052002,-3.048981 -5.037994,-11.151978 -6.686996,-15.587982c-2.949005,-7.933014 -6.19101,-15.873993 -8.917007,-24.050018"/>
  <path fill="none" stroke="#000000" stroke-width="1.2249" stroke-linecap="square" stroke-miterlimit="10" id="path23" d="m142.382004,292.773987c-1.5,-9.597992 -7.074997,-20.316986 -10.255005,-29.839996c-3.822998,-11.453995 -8.743996,-22.651001 -12.480995,-33.848999c-6.997002,-20.958008 -14.981003,-41.839996 -20.954002,-62.796005"/>
  <path fill="none" stroke="#000000" stroke-width="1.2249" stroke-linecap="square" stroke-miterlimit="10" id="path25" d="m98.692001,166.289993c-7.287003,-10.318008 -5.951004,-28.734009 -13.375,-37.412003c9.511002,-14.548004 19.021996,-29.097 28.532997,-43.645004"/>
  <path fill="#00ffff" stroke="#000000" stroke-width="1.2249" stroke-linecap="square" stroke-miterlimit="10" id="path27" d="m113.850998,85.233002c19.5,19.476997 19.598007,46.793991 34.772995,67.695999c8.656006,11.923004 22.896011,13.662003 35.665009,20.041c10.248001,5.119995 24.326004,10.455002 27.641998,22.714005c-3.962006,-0.910004 -8.134995,-6.235001 -12.929993,-6.235001c-7.113007,0 -11.856003,0.240997 -19.170013,1.781998c-12.256989,2.582001 -26.161987,-0.654007 -35.663986,-8.016998c12.903992,9.737991 27.649994,12.922989 41.905975,20.041992c13.794006,6.889008 29.081009,21 34.772003,34.294006c-6.974991,-5.49501 -17.156998,-8.018005 -25.856003,-8.018005c-6.981995,0 -21.572998,-5.475998 -24.072998,-11.578995c-0.296997,0 -0.595993,0 -0.89299,0c0.61499,7.653 15.822998,16.811005 22.289993,20.041c11.569,5.778992 20.811996,14.104004 29.869995,23.159988c8.173004,8.167999 15.533005,22.127014 20.063004,31.621002c5.199997,10.903015 9.531006,22.161011 13.373001,32.957001c-10.283005,-6.845001 -23.158997,-14.25 -35.664001,-14.25c-14.035004,0 -27.86499,-2.480988 -41.015991,-6.235992c3.792999,5.17099 11.688995,8.673004 17.832001,10.687988c3.688995,1.210022 8.636993,1.851013 12.482986,2.673004c3.723007,0.795013 9.276001,2.671997 12.928024,2.671997c6.985001,0 18.610992,7.790009 21.399979,13.361023c2.074997,4.143982 6.053009,8.27298 9.361008,11.579987c2.64299,2.639008 4.078003,7.80899 6.240997,9.796997c-5.570007,-2.710999 -9.813995,-5.345001 -16.940002,-5.345001c-7.832001,0 -14.966995,1.945007 -22.291,2.673004c-14.677994,1.458984 -30.500992,-1.347015 -43.688995,-6.234009c-12.369995,-4.584991 -16.54599,-10.880981 -21.399994,-21.378998c-5.720993,-12.371002 -10.431992,-26.825989 -15.158005,-40.083008c-11.253998,-31.571991 -21.996994,-63.242981 -32.543991,-94.863983c-2.374001,-7.117004 -4.812004,-13.903 -7.579002,-20.932999c-1.807999,-4.59201 -6.240997,-13.480011 -6.240997,-18.26001c0,-5.445999 -5.083,-19.274002 -8.025002,-22.713989c9.512001,-14.548004 19.021996,-29.097008 28.533997,-43.645004"/>
  <path fill-rule="evenodd" clip-rule="evenodd" fill="#4A3217" id="path29" d="m107.609001,87.903999c11.855995,-1.890999 16.844002,27.133003 18.492996,35.365997c2.017998,10.079002 5.821007,19.73101 7.364006,29.657997c1.222992,7.868011 3.565002,15.427002 3.565002,23.159012c0,5.888992 2.044998,11.858002 2.674988,17.814987c0.30101,2.835007 -0.619995,10.068008 1.339005,12.025009c2.094009,2.091995 3.192001,13.302994 4.012009,16.479004c0.903992,3.494995 1.934998,7.235992 2.675995,10.687988c0.796005,3.705002 3.565994,9.737 3.565994,13.361008c0,8.498993 5.025009,18.840988 8.024002,26.722c2.800995,7.365997 3.957001,15.037994 7.576996,22.270996c1.172012,2.334991 1.741013,5.743988 3.569,7.569c0.766998,0.766998 3.742004,3.632996 4.011002,4.009003c1.751007,2.450012 3.567001,7.955994 3.567001,11.134003c0,4.875 1.781998,10.852997 1.781998,16.479004c0,4.419983 0.776001,16.151001 -2.227997,19.151001c-0.550995,0.548004 -2.229004,8.992981 -2.229004,9.798004c0,2.996002 -2.365997,7.653992 -3.567993,10.242981c-3.009003,6.484009 -6.029999,14.934021 -11.143997,20.041016c-5.737,5.729004 -9.496002,11.790985 -16.49501,16.479004c-3.496994,2.34198 -6.113998,6.17099 -10.699997,6.233978c-2.588989,0.036011 -5.414001,-2.673004 -8.470993,-2.673004c-4.882004,0 -10.429001,-2.636993 -15.604004,-3.561981c-3.878998,-0.692017 -12.234001,0.247986 -14.711998,-2.227997c-1.715004,-1.714996 -9.521004,-1.285004 -12.038002,-2.227997c-2.043999,-0.765015 -6.627998,-2.167023 -8.470001,-4.01001c-3.850998,-3.845001 -11.146,-13.002991 -11.146,-20.483002c0,-5.054993 -2.799999,-11.125 -3.566998,-16.480988c-1.146999,-8.022003 -3.566002,-15.822021 -3.566002,-24.048004c0,-20.156006 -3.566998,-40.119019 -3.566998,-60.572021c0,-36.845993 4.34,-72.516983 11.591999,-107.777985c3.320999,-16.150009 7.342003,-32.374008 12.483002,-47.209c1.753998,-5.063004 2.943001,-9.711006 4.458,-14.252007c3.235001,-9.686996 17.324997,-16.43 26.751999,-23.156998"/>
  <path fill="none" stroke="#000000" stroke-width="1.2249" stroke-linecap="square" stroke-miterlimit="10" id="path31" d="m107.609001,87.903999c12.651001,-2.017998 17.477997,30.649002 19.614998,39.193001c4.684998,18.720001 6.688004,37.044998 10.699005,55.225998"/>
  <path fill="none" stroke="#000000" stroke-width="1.2249" stroke-linecap="square" stroke-miterlimit="10" id="path33" d="m137.923004,182.322998c1.548996,5.714996 1.365997,10.906006 1.78299,16.923996c0.332001,4.768005 2.67601,9.270004 2.67601,14.251007c0,3.630997 1.966003,7.673004 3.121002,11.132996c1.390991,4.167999 0.763992,9.983002 2.674988,13.807999c4.747009,9.490997 6.374008,21.041016 9.361008,31.175995"/>
  <path fill="none" stroke="#000000" stroke-width="1.2249" stroke-linecap="square" stroke-miterlimit="10" id="path35" d="m157.539993,269.61499c4.306992,7.640991 4.60199,16.313995 8.472,24.050995c1.526993,3.056 2.35199,6.134003 4.011993,8.906006c1.25,2.088013 3.623001,3.283997 4.458008,4.45401c5.435989,7.605988 5.349991,20.345001 5.349991,30.283997"/>
  <path fill="none" stroke="#000000" stroke-width="1.2249" stroke-linecap="square" stroke-miterlimit="10" id="path37" d="m179.830994,337.311005c1.343994,14.46701 -5.145996,34.455994 -12.48201,46.319c-4.897995,7.921997 -9.613998,14.954987 -16.494995,21.822998c-1.860001,1.858002 -8.934998,8.460999 -11.145996,8.460999c-2.126007,0 -3.56601,2.606018 -6.240005,2.673004c-1.195999,0.031006 -3.830002,-1.52301 -5.349991,-1.781006"/>
  <path fill="none" stroke="#000000" stroke-width="1.2249" stroke-linecap="square" stroke-miterlimit="10" id="path39" d="m128.117004,414.806c-18.615997,-5.312988 -39.443001,-5.656006 -54.389992,-13.360992"/>
  <path fill="none" stroke="#000000" stroke-width="1.2249" stroke-linecap="square" stroke-miterlimit="10" id="path41" d="m73.726997,401.444c-4.838997,-4.31601 -11.590996,-15.838013 -11.590996,-24.494995c0,-6.799011 -4.458,-14.681 -4.458,-21.822998c0,-10.391998 -3.545002,-21.438995 -3.567001,-32.065002"/>
  <path fill="none" stroke="#000000" stroke-width="1.2249" stroke-linecap="square" stroke-miterlimit="10" id="path43" d="m54.110001,323.061005c0,-44.940002 -5.232002,-92.156998 7.132999,-135.393997"/>
  <path fill="none" stroke="#000000" stroke-width="1.2249" stroke-linecap="square" stroke-miterlimit="10" id="path45" d="m61.243999,187.667007c3.919003,-27.403 11.583004,-55.190002 20.507,-78.384995"/>
  <path fill="none" stroke="#000000" stroke-width="1.2249" stroke-linecap="square" stroke-miterlimit="10" id="path47" d="m81.750999,109.281998c1.239998,-7.993996 18.556,-16.167 25.858002,-21.377998"/>
  <path fill="url(#svg_2)" stroke="#000000" stroke-width="1.2249" stroke-linecap="square" stroke-miterlimit="10" id="path49" d="m107.609001,87.903999c11.855995,-1.890999 16.844002,27.133003 18.492996,35.365997c2.017998,10.079002 5.821007,19.73101 7.364006,29.657997c1.222992,7.868011 3.565002,15.427002 3.565002,23.159012c0,5.888992 2.044998,11.858002 2.674988,17.814987c0.30101,2.835007 -0.619995,10.068008 1.339005,12.025009c2.094009,2.091995 3.192001,13.302994 4.012009,16.479004c0.903992,3.494995 1.934998,7.235992 2.675995,10.687988c0.796005,3.705002 3.565994,9.737 3.565994,13.361008c0,8.498993 5.025009,18.840988 8.024002,26.722c2.800995,7.365997 3.957001,15.037994 7.576996,22.270996c1.172012,2.334991 1.741013,5.743988 3.569,7.569c0.766998,0.766998 3.742004,3.632996 4.011002,4.009003c1.751007,2.450012 3.567001,7.955994 3.567001,11.134003c0,4.875 1.781998,10.852997 1.781998,16.479004c0,4.419983 0.776001,16.151001 -2.227997,19.151001c-0.550995,0.548004 -2.229004,8.992981 -2.229004,9.798004c0,2.996002 -2.365997,7.653992 -3.567993,10.242981c-3.009003,6.484009 -6.029999,14.934021 -11.143997,20.041016c-5.737,5.729004 -9.496002,11.790985 -16.49501,16.479004c-3.496994,2.34198 -6.113998,6.17099 -10.699997,6.233978c-2.588989,0.036011 -5.414001,-2.673004 -8.470993,-2.673004c-4.882004,0 -10.429001,-2.636993 -15.604004,-3.561981c-3.878998,-0.692017 -12.234001,0.247986 -14.711998,-2.227997c-1.715004,-1.714996 -9.521004,-1.285004 -12.038002,-2.227997c-2.043999,-0.765015 -6.627998,-2.167023 -8.470001,-4.01001c-3.850998,-3.845001 -11.146,-13.002991 -11.146,-20.483002c0,-5.054993 -2.799999,-11.125 -3.566998,-16.480988c-1.146999,-8.022003 -3.566002,-15.822021 -3.566002,-24.048004c0,-20.156006 -3.566998,-40.119019 -3.566998,-60.572021c0,-36.845993 4.34,-72.516983 11.591999,-107.777985c3.320999,-16.150009 7.342003,-32.374008 12.483002,-47.209c1.753998,-5.063004 2.943001,-9.711006 4.458,-14.252007c3.235001,-9.686996 17.324997,-16.43 26.751999,-23.156998"/>
  <path fill-rule="evenodd" clip-rule="evenodd" fill="#5A3D1C" id="path51" d="m87.994003,70.088997c2.647995,-2.872993 7.703995,-2.799995 9.807999,-5.343994c1.200996,-1.453003 1.781998,-7.702003 1.781998,-9.798004c0,-2.778999 2.748001,-8.161999 4.013,-10.689999c2.640999,-5.272999 2.982002,-10.304001 4.013,-16.032999c2.893997,-16.085001 14.432999,11.225 16.048996,16.92399c1.577003,5.55801 6.244003,15.140999 3.121002,21.37701c-1.574997,3.144997 -0.867996,7.545998 -3.566002,10.242996c-2.25,2.249001 -5.694,2.607002 -7.579994,5.791c-3.766006,6.358002 -0.891006,13.881004 -0.891006,20.486c0,8.108002 6.940002,13.496002 9.808006,20.487999c2.481995,6.049995 1.783997,18.18 1.783997,24.49601c0,2.929993 2.674995,5.719986 2.674995,8.460999c0,4.595001 -0.623001,8.897995 -0.891998,13.360001c-0.924995,15.30899 0,28.664993 0,43.646988c0,17.089005 0.151001,34.063004 -16.941994,40.974991c-5.481003,2.216003 -15.157005,2.640015 -15.157005,10.242004c0,3.712006 0,7.423004 0,11.135986c0,4.35202 -5.348,5.022003 -8.023994,7.124023c-6.045006,4.746002 -5.352005,8.628998 -5.352005,16.033997c0,8.123993 -7.758995,11.281006 -14.265999,13.360992c-10.496998,3.355011 -28.993999,5.928009 -35.666,-4.45401c-2.525999,-3.931976 -6.240999,-14.47699 -6.240999,-19.149963c0,-6.44101 -1.186998,-11.02301 -4.458,-18.262024c-6.325999,-13.992981 8.468,-27.083984 6.242001,-40.973984c-0.702999,-4.378006 -5.351,-7.104004 -5.351,-11.133011c0,-5.759003 -0.892,-12.019989 -0.892,-18.261002c0,-10.724991 -1.802999,-18.866989 -4.458,-28.503998c-1.139999,-4.139999 -3.516,-10.787994 -1.337,-15.141998c0.274,-0.546997 -4.356,-13.158005 -5.349999,-15.143005c-0.940001,-1.878998 -0.419001,-12.222 0.446,-14.250992c2.137,-5.012001 8.955999,-8.943001 11.591,-14.251999c-0.351999,0.590996 -0.374001,1.084999 -0.892,1.781998c-0.322001,-4.709999 3.059,-8.777 5.35,-12.470001c1.021,-1.647995 6.241001,-7.708 6.241001,-10.243996c0,-6.498001 -5.665001,-7.491005 -8.024002,-12.025002c-6.207998,-11.931 -7.626999,-31.065002 -1.782999,-43.646c1.944,-4.186001 4.723999,-7.704002 7.132999,-11.580002c0.08,-0.128 5.349001,-7.784 5.349001,-4.899c0,6.216 1.187,10.545 2.674999,16.479002c1.153,4.597 2.700001,8.071999 4.459,11.578999c1.59,3.169998 3.566002,6.514999 3.566002,10.243999c0,3.150002 0.959,8.325001 -0.446003,11.133999c-2.931,5.855003 9.870003,5.510002 12.151001,5.176003c9.771004,-1.427002 19.541,-2.855003 29.312004,-4.284004"/>
  <path fill="none" stroke="#000000" stroke-width="1.2249" stroke-linecap="square" stroke-miterlimit="10" id="path53" d="m87.994003,70.088997c2.021996,-2.195 9.807999,-3.802994 9.807999,-6.234997c0,-2.271 1.106995,-8.449001 2.228996,-10.688c1.891998,-3.778 3.402,-7.611 4.903999,-11.580002c1.784004,-4.712997 0.765999,-11.631998 2.675003,-16.033998c2.748001,-6.333 10.698997,1.149 10.698997,5.789999c0,7.125 8.612,12.257999 7.134003,20.042"/>
  <path fill="none" stroke="#000000" stroke-width="1.2249" stroke-linecap="square" stroke-miterlimit="10" id="path55" d="m125.442001,51.383999c3.231995,8.322002 1.284996,15.745998 -1.338005,23.605c-1.137993,3.407005 -6.372993,3.381004 -8.023994,6.68c-2.122002,4.237 -2.229004,7.338005 -2.229004,12.025002c0,7.917 1.632004,15.064003 5.348999,21.822998c5.171005,9.405998 6.242004,13.917999 6.242004,24.940994"/>
  <path fill="none" stroke="#000000" stroke-width="1.2249" stroke-linecap="square" stroke-miterlimit="10" id="path57" d="m125.442001,140.457993c-1.117004,7.429993 3.565994,13.927994 3.565994,21.377991c0,4.729004 1.669006,26.835007 -1.337997,29.839005c-2.309998,2.309006 0.445999,13.354996 0.445999,16.479004c0,8.401993 1.434998,18.910995 -1.782997,26.722"/>
  <path fill="none" stroke="#000000" stroke-width="1.2249" stroke-linecap="square" stroke-miterlimit="10" id="path59" d="m126.333,234.876007c-2.341003,8.598007 -2.491997,12.460999 -10.700996,16.925003c-4.198006,2.283005 -19.615005,5.258987 -19.615005,11.577988c0,9.247009 1.247002,14.968018 -7.132996,19.152008c-7.534004,3.763 -6.243004,9.980011 -6.243004,17.368011"/>
  <path fill="none" stroke="#000000" stroke-width="1.2249" stroke-linecap="square" stroke-miterlimit="10" id="path61" d="m82.641998,299.898987c1.532005,12.362 -30.702999,18.957001 -39.230999,14.697998c-7.195,-3.593994 -10.089001,-4.251007 -12.483,-12.024994c-2.043999,-6.639008 -5.48,-12.971008 -3.566,-18.704987"/>
  <path fill="none" stroke="#000000" stroke-width="1.2249" stroke-linecap="square" stroke-miterlimit="10" id="path63" d="m27.362,283.867004c-1.08,-5.843018 -9.503,-15.166016 -7.578999,-20.933014c2.351,-7.047989 2.714998,-19.637985 8.023998,-24.940994c5.669003,-5.660995 -3.224998,-15.195999 -4.903999,-20.041c-3,-8.658997 0.086,-20.177994 -1.782999,-29.393997"/>
  <path fill="none" stroke="#000000" stroke-width="1.2249" stroke-linecap="square" stroke-miterlimit="10" id="path65" d="m21.120001,188.557999c0,-5.722992 -0.601002,-10.996994 -3.121,-16.033005c-2.354,-4.704987 0.007,-18.924988 -4.012,-20.932999c-3.308001,-1.651993 -3.688001,-14.966995 -3.567,-18.259995c0.347,-9.333 8.538,-12.541 12.483,-20.487999c-0.351999,0.590996 -0.374001,1.084999 -0.892,1.781998c-0.226999,-3.315002 1.723,-5.800003 2.675001,-8.906998"/>
  <path fill="none" stroke="#000000" stroke-width="1.2249" stroke-linecap="square" stroke-miterlimit="10" id="path67" d="m24.687,105.720001c3.315001,-3.537003 4.007999,-7.568001 7.578999,-11.135002c2.859001,-2.856003 1.752003,-7.362999 -1.336998,-8.906998c-4.987001,-2.489998 -6.441,-8.484001 -8.025002,-13.806999c-4.973999,-16.711002 -2.297998,-37.238003 9.806999,-49.881002"/>
  <path fill="none" stroke="#000000" stroke-width="1.2249" stroke-linecap="square" stroke-miterlimit="10" id="path69" d="m32.710999,21.99c3.861,-7.868 3.248001,2.629 3.566002,5.344c0.852001,7.239002 3.514999,17.762001 8.471001,22.714001c5.287998,5.283001 -0.240002,16.849003 3.120998,21.823002c5.682999,8.412994 31.036999,-0.453003 40.125004,-1.782005"/>
  <path fill="url(#svg_1)" stroke="#000000" stroke-width="1.2249" stroke-linecap="square" stroke-miterlimit="10" id="path71" d="m87.994003,70.088997c2.647995,-2.872993 7.703995,-2.799995 9.807999,-5.343994c1.200996,-1.453003 1.781998,-7.702003 1.781998,-9.798004c0,-2.778999 2.748001,-8.161999 4.013,-10.689999c2.640999,-5.272999 2.982002,-10.304001 4.013,-16.032999c2.893997,-16.085001 14.432999,11.225 16.048996,16.92399c1.577003,5.55801 6.244003,15.140999 3.121002,21.37701c-1.574997,3.144997 -0.867996,7.545998 -3.566002,10.242996c-2.25,2.249001 -5.694,2.607002 -7.579994,5.791c-3.766006,6.358002 -0.891006,13.881004 -0.891006,20.486c0,8.108002 6.940002,13.496002 9.808006,20.487999c2.481995,6.049995 1.783997,18.18 1.783997,24.49601c0,2.929993 2.674995,5.719986 2.674995,8.460999c0,4.595001 -0.623001,8.897995 -0.891998,13.360001c-0.924995,15.30899 0,28.664993 0,43.646988c0,17.089005 0.151001,34.063004 -16.941994,40.974991c-5.481003,2.216003 -15.157005,2.640015 -15.157005,10.242004c0,3.712006 0,7.423004 0,11.135986c0,4.35202 -5.348,5.022003 -8.023994,7.124023c-6.045006,4.746002 -5.352005,8.628998 -5.352005,16.033997c0,8.123993 -7.758995,11.281006 -14.265999,13.360992c-10.496998,3.355011 -28.993999,5.928009 -35.666,-4.45401c-2.525999,-3.931976 -6.240999,-14.47699 -6.240999,-19.149963c0,-6.44101 -1.186998,-11.02301 -4.458,-18.262024c-6.325999,-13.992981 8.468,-27.083984 6.242001,-40.973984c-0.702999,-4.378006 -5.351,-7.104004 -5.351,-11.133011c0,-5.759003 -0.892,-12.019989 -0.892,-18.261002c0,-10.724991 -1.802999,-18.866989 -4.458,-28.503998c-1.139999,-4.139999 -3.516,-10.787994 -1.337,-15.141998c0.274,-0.546997 -4.356,-13.158005 -5.349999,-15.143005c-0.940001,-1.878998 -0.419001,-12.222 0.446,-14.250992c2.137,-5.012001 8.955999,-8.943001 11.591,-14.251999c-0.351999,0.590996 -0.374001,1.084999 -0.892,1.781998c-0.322001,-4.709999 3.059,-8.777 5.35,-12.470001c1.021,-1.647995 6.241001,-7.708 6.241001,-10.243996c0,-6.498001 -5.665001,-7.491005 -8.024002,-12.025002c-6.207998,-11.931 -7.626999,-31.065002 -1.782999,-43.646c1.944,-4.186001 4.723999,-7.704002 7.132999,-11.580002c0.08,-0.128 5.349001,-7.784 5.349001,-4.899c0,6.216 1.187,10.545 2.674999,16.479002c1.153,4.597 2.700001,8.071999 4.459,11.578999c1.59,3.169998 3.566002,6.514999 3.566002,10.243999c0,3.150002 0.959,8.325001 -0.446003,11.133999c-2.931,5.855003 9.870003,5.510002 12.151001,5.176003c9.771004,-1.427002 19.541,-2.855003 29.312004,-4.284004"/>
  <path fill-rule="evenodd" clip-rule="evenodd" fill="#805628" id="path73" d="m64.810997,64.746002c-13.021996,-6.836002 -18.136997,-21.064003 -10.699997,-34.739002c8.153,-14.992 23.367996,-20.777 39.232002,-22.269c-6.791,5.523 -15.788002,7.755 -22.291,14.252c-3.075005,3.071001 -5.927002,8.830999 -8.025002,9.798c4.474998,-5.186001 12.546997,-12.469999 20.953003,-12.469999c4.384995,0 14.723999,-0.653 17.386993,-2.673c-8.906998,2.098 -22.419998,9.809 -25.856995,18.706001c3.201996,-11.480001 18.869995,-6.565002 26.75,-7.126001c0,0.296999 0,0.594 0,0.890999c-8.163002,-4.774 -19.604004,11.146002 -20.509003,17.814001c-0.985001,7.271999 0.862,24.214996 11.592003,20.487c-5.275002,8.995003 5.376999,30.227997 12.481995,36.521004c-5.758995,2.303993 -13.079994,-0.094002 -16.940994,-4.454002c0.532997,8.214996 10.069,14.716995 16.049995,16.923996c-6.638,-0.827995 -22.647995,-4.125 -25.858002,-10.687996c-0.561996,6.669998 2.365005,9.359001 6.241005,14.250999c2.140999,2.699997 4.534996,7.737999 8.025002,8.907005c-12.977005,0 -26.781006,0.824997 -34.774002,-10.688004c-0.309002,3.959 1.229,7.593994 0.890999,11.580002c-11.630001,-3.604004 -22.291,-17.016006 -22.291,-28.504005c0.000999,-12.849998 12.619999,-37.531998 27.642998,-36.519997"/>
  <path fill="none" stroke="#000000" stroke-width="1.2249" stroke-linecap="square" stroke-miterlimit="10" id="path75" d="m64.810997,64.746002c-13.021996,-6.836002 -18.136997,-21.064003 -10.699997,-34.739002c8.153,-14.992 23.367996,-20.777 39.232002,-22.269c-0.892006,0.594 -1.783005,1.188 -2.675003,1.781"/>
  <path fill="none" stroke="#000000" stroke-width="1.2249" stroke-linecap="square" stroke-miterlimit="10" id="path77" d="m90.667,9.52c-6.879997,0.884999 -15.659996,8.518 -20.506996,13.361c-2.913002,2.909 -5.043007,7.944 -7.134003,8.907c4.474998,-5.186001 12.546997,-12.469999 20.952995,-12.469999c4.385002,0 14.724007,-0.653 17.387001,-2.673c-5.738998,1.352999 -11.832001,3.987999 -16.048996,8.017"/>
  <path fill="none" stroke="#000000" stroke-width="1.2249" stroke-linecap="square" stroke-miterlimit="10" id="path79" d="m85.317001,24.662001c-3.456001,3.452999 -8.167,6.444 -9.807999,10.689001c3.201996,-11.480001 18.869995,-6.565002 26.75,-7.126001c0,0.296999 0,0.594 0,0.890999c-6.875999,-4.021 -15.359001,8.217001 -19.171005,12.025c-3.805,3.799 -2.231995,18.153999 1.337006,21.823002"/>
  <path fill="none" stroke="#000000" stroke-width="1.2249" stroke-linecap="square" stroke-miterlimit="10" id="path81" d="m84.426003,62.964001c1.100998,4.706997 4.064995,6.138996 8.917,4.452999c-5.275002,8.995003 5.376999,30.227997 12.481995,36.521004c-5.758995,2.303993 -13.079994,-0.094002 -16.940994,-4.454002c0.307999,4.733002 3.687996,8.504997 7.132996,11.580002"/>
  <path fill="none" stroke="#000000" stroke-width="1.2249" stroke-linecap="square" stroke-miterlimit="10" id="path83" d="m96.017998,111.064003c2.716003,2.858994 5.901001,4.230995 8.917,5.343994c-6.638,-0.827995 -22.647995,-4.125 -25.857994,-10.687996c-0.562004,6.669998 2.364998,9.359001 6.240997,14.250999c2.140999,2.699997 4.534996,7.737999 8.025002,8.907005c-8.334999,0 -16.569,1.067001 -24.075005,-2.671005"/>
  <path fill="none" stroke="#000000" stroke-width="1.2249" stroke-linecap="square" stroke-miterlimit="10" id="path85" d="m69.267998,126.207001c-4.576996,-1.029999 -8.220997,-4.446999 -10.698997,-8.016998c-0.309002,3.959 1.229,7.593994 0.890999,11.580002c-6.674,-2.068001 -20.507999,-12.777008 -20.507999,-20.488007c0,-3.862999 -2.380001,-8.846001 -0.890999,-14.250999c1.978001,-7.18 6.598,-14.549995 10.700001,-21.376999"/>
  <path fill="none" stroke="#000000" stroke-width="1.2249" stroke-linecap="square" stroke-miterlimit="10" id="path87" d="m48.761002,73.653c3.847,-5.445 9.118,-9.374001 16.049995,-8.906998"/>
  <path fill="#00ffff" stroke="#000000" stroke-width="1.2249" stroke-linecap="square" stroke-miterlimit="10" id="path89" d="m64.810997,64.746002c-13.021996,-6.836002 -18.136997,-21.064003 -10.699997,-34.739002c8.153,-14.992 23.367996,-20.777 39.232002,-22.269c-6.791,5.523 -15.788002,7.755 -22.291,14.252c-3.075005,3.071001 -5.927002,8.830999 -8.025002,9.798c4.474998,-5.186001 12.546997,-12.469999 20.953003,-12.469999c4.384995,0 14.723999,-0.653 17.386993,-2.673c-8.906998,2.098 -22.419998,9.809 -25.856995,18.706001c3.201996,-11.480001 18.869995,-6.565002 26.75,-7.126001c0,0.296999 0,0.594 0,0.890999c-8.163002,-4.774 -19.604004,11.146002 -20.509003,17.814001c-0.985001,7.271999 0.862,24.214996 11.592003,20.487c-5.275002,8.995003 5.376999,30.227997 12.481995,36.521004c-5.758995,2.303993 -13.079994,-0.094002 -16.940994,-4.454002c0.532997,8.214996 10.069,14.716995 16.049995,16.923996c-6.638,-0.827995 -22.647995,-4.125 -25.858002,-10.687996c-0.561996,6.669998 2.365005,9.359001 6.241005,14.250999c2.140999,2.699997 4.534996,7.737999 8.025002,8.907005c-12.977005,0 -26.781006,0.824997 -34.774002,-10.688004c-0.309002,3.959 1.229,7.593994 0.890999,11.580002c-11.630001,-3.604004 -22.291,-17.016006 -22.291,-28.504005c0.000999,-12.849998 12.619999,-37.531998 27.642998,-36.519997"/>
  <path fill="none" stroke="#000000" stroke-width="1.2249" stroke-linecap="square" stroke-miterlimit="10" id="path91" d="m46.978001,70.088997c-1.790001,3.052002 -3.201,6.143005 -5.350002,8.908005"/>
  <path fill="none" stroke="#000000" stroke-width="1.2249" stroke-linecap="square" stroke-miterlimit="10" id="path93" d="m46.978001,70.088997c-1.790001,3.052002 -3.201,6.143005 -5.350002,8.908005"/>
  <line fill="none" stroke="#000000" stroke-width="1.2249" stroke-linecap="square" stroke-miterlimit="10" y2="0.612" y1="0.612" x2="0.612" x1="0.612" id="line95"/>
  <path fill-rule="evenodd" clip-rule="evenodd" fill="#323232" id="path97" d="m41.627998,60.291c0.891003,-11.918999 -10.625998,-20.506001 -9.807999,-32.066c-1.698999,5.381998 -5.195999,12.774 -3.566,18.705c1.860001,6.771 9.544001,8.202999 13.373999,13.361"/>
  <path fill="none" stroke="#000000" stroke-width="1.2249" stroke-linecap="square" stroke-miterlimit="10" id="path99" d="m41.627998,60.291c0.891003,-11.918999 -10.625998,-20.506001 -9.807999,-32.066c-1.698999,5.381998 -5.195999,12.774 -3.566,18.705c1.860001,6.771 9.544001,8.202999 13.373999,13.361"/>
  <path fill="none" stroke="#000000" stroke-width="1.2249" stroke-linecap="square" stroke-miterlimit="10" id="path101" d="m41.627998,60.291c0.891003,-11.918999 -10.625998,-20.506001 -9.807999,-32.066c-1.698999,5.381998 -5.195999,12.774 -3.566,18.705c1.860001,6.771 9.544001,8.202999 13.373999,13.361"/>
  <path fill="none" stroke="#000000" stroke-width="1.2249" stroke-linecap="square" stroke-miterlimit="10" id="path103" d="m31.82,28.225c1.300999,5.492998 2.528999,14.734999 7.132,18.705"/>
  <path fill="none" stroke="#000000" stroke-width="1.2249" stroke-linecap="square" stroke-miterlimit="10" id="path105" d="m31.82,28.225c1.300999,5.492998 2.528999,14.734999 7.132,18.705"/>
  <path fill="none" stroke="#000000" stroke-width="1.2249" stroke-linecap="square" stroke-miterlimit="10" id="path107" d="m38.952,46.93c2.375999,7.984001 3.802002,13.047001 -0.890999,21.377998"/>
  <path fill="none" stroke="#000000" stroke-width="1.2249" stroke-linecap="square" stroke-miterlimit="10" id="path109" d="m38.952,46.93c2.375999,7.984001 3.802002,13.047001 -0.890999,21.377998"/>
  <path fill-rule="evenodd" clip-rule="evenodd" fill="#323232" id="path111" d="m101.366997,60.291c0.361,-5.556 6.242004,-11.039001 6.242004,-16.033001c0,-2.598 1.979996,-15.142 4.458,-15.142c7.282997,0 8.024002,25.296 8.024002,30.286001c-0.654007,-3.522999 -5.755005,-10.688999 -9.808006,-10.688999c-1.925995,-0.000999 -8.075996,10.080997 -8.916,11.577999"/>
  <path fill="none" stroke="#000000" stroke-width="1.2249" stroke-linecap="square" stroke-miterlimit="10" id="path113" d="m101.366997,60.291c0.361,-5.556 6.242004,-11.039001 6.242004,-16.033001c0,-2.598 1.979996,-15.142 4.458,-15.142c7.282997,0 8.024002,25.296 8.024002,30.286001c-0.654007,-3.522999 -5.755005,-10.688999 -9.808006,-10.688999c-1.925995,-0.000999 -8.075996,10.080997 -8.916,11.577999"/>
  <line fill="none" stroke="#000000" stroke-width="1.2249" stroke-linecap="square" stroke-miterlimit="10" y2="0.612" y1="0.612" x2="0.612" x1="0.612" id="line115"/>
  <path fill="none" stroke="#000000" stroke-width="1.2249" stroke-linecap="square" stroke-miterlimit="10" id="path117" d="m101.366997,60.291c0.361,-5.556 6.242004,-11.039001 6.242004,-16.033001c0,-2.598 1.979996,-15.142 4.458,-15.142c7.282997,0 8.024002,25.296 8.024002,30.286001c-0.654007,-3.522999 -5.755005,-10.688999 -9.808006,-10.688999c-1.925995,-0.000999 -8.075996,10.080997 -8.916,11.577999"/>
  <path fill="none" stroke="#000000" stroke-width="1.2249" stroke-linecap="square" stroke-miterlimit="10" id="path119" d="m110.283997,30.006001c-0.185997,8.834 -4.967995,19.335999 -8.023994,27.612999"/>
  <path fill="none" stroke="#000000" stroke-width="1.2249" stroke-linecap="square" stroke-miterlimit="10" id="path121" d="m110.283997,30.006001c-0.185997,8.834 -4.967995,19.335999 -8.023994,27.612999"/>
  <path fill="none" stroke="#000000" stroke-width="1.2249" stroke-linecap="square" stroke-miterlimit="10" id="path123" d="m102.260002,57.619999c0,4.302002 -0.956001,8.989002 1.781998,12.469997"/>
  <path fill="none" stroke="#000000" stroke-width="1.2249" stroke-linecap="square" stroke-miterlimit="10" id="path125" d="m102.260002,57.619999c0,4.302002 -0.956001,8.989002 1.781998,12.469997"/>
  <path fill="none" stroke="#000000" stroke-width="1.2249" stroke-linecap="square" stroke-miterlimit="10" id="path127" d="m104.042,70.088997c3.286003,1.369003 8.024002,5.355003 5.349998,9.798004"/>
  <path fill="none" stroke="#000000" stroke-width="1.2249" stroke-linecap="square" stroke-miterlimit="10" id="path129" d="m104.042,70.088997c3.286003,1.369003 8.024002,5.355003 5.349998,9.798004"/>
  <path fill="none" stroke="#000000" stroke-width="1.2249" stroke-linecap="square" stroke-miterlimit="10" id="path131" d="m109.391998,79.888c-1.294998,2.056 -2.086998,3.922997 -2.674995,6.236"/>
  <path fill="none" stroke="#000000" stroke-width="1.2249" stroke-linecap="square" stroke-miterlimit="10" id="path133" d="m109.391998,79.888c-1.294998,2.056 -2.086998,3.922997 -2.674995,6.236"/>
  <path fill="none" stroke="#000000" stroke-width="1.2249" stroke-linecap="square" stroke-miterlimit="10" id="path135" d="m65.702003,59.401001c-4.686005,-8.612 -11.592003,-15.373001 -11.592003,-27.613001"/>
  <path fill="none" stroke="#000000" stroke-width="1.2249" stroke-linecap="square" stroke-miterlimit="10" id="path137" d="m65.702003,59.401001c-4.686005,-8.612 -11.592003,-15.373001 -11.592003,-27.613001"/>
  <path fill="none" stroke="#000000" stroke-width="1.2249" stroke-linecap="square" stroke-miterlimit="10" id="path139" d="m54.110001,31.788c2.281998,-1.888 2.551998,-4.329 4.904999,-6.68c2.146999,-2.146 7.593002,-4.93 8.915001,-7.572001c2.894997,-5.783999 17.633003,-8.138999 22.737,-9.797999"/>
  <path fill="none" stroke="#000000" stroke-width="1.2249" stroke-linecap="square" stroke-miterlimit="10" id="path141" d="m54.110001,31.788c2.281998,-1.888 2.551998,-4.329 4.904999,-6.68c2.146999,-2.146 7.593002,-4.93 8.915001,-7.572001c2.894997,-5.783999 17.633003,-8.138999 22.737,-9.797999"/>
  <path fill="none" stroke="#000000" stroke-width="1.2249" stroke-linecap="square" stroke-miterlimit="10" id="path143" d="m66.593002,58.509998c-4.591003,-6.879997 -7.281002,-14.012997 -9.808002,-22.267998"/>
  <path fill="none" stroke="#000000" stroke-width="1.2249" stroke-linecap="square" stroke-miterlimit="10" id="path145" d="m66.593002,58.509998c-4.591003,-6.879997 -7.281002,-14.012997 -9.808002,-22.267998"/>
  <path fill="none" stroke="#000000" stroke-width="1.2249" stroke-linecap="square" stroke-miterlimit="10" id="path147" d="m56.785999,36.242001c-1.16,-13.120001 22.537998,-22.290001 31.208004,-26.723001"/>
  <path fill="none" stroke="#000000" stroke-width="1.2249" stroke-linecap="square" stroke-miterlimit="10" id="path149" d="m56.785999,36.242001c-1.16,-13.120001 22.537998,-22.290001 31.208004,-26.723001"/>
  <line fill="none" stroke="#000000" stroke-width="1.2249" stroke-linecap="square" stroke-miterlimit="10" y2="0.612" y1="0.612" x2="0.612" x1="0.612" id="line151"/>
  <path fill="none" stroke="#000000" stroke-width="1.2249" stroke-linecap="square" stroke-miterlimit="10" id="path153" d="m68.375999,56.729c-6.015999,-3.327999 -3.977997,-13.292 -6.687,-18.706001c-3.044998,-6.084 2.741001,-13.587999 7.578999,-16.032999"/>
  <path fill="none" stroke="#000000" stroke-width="1.2249" stroke-linecap="square" stroke-miterlimit="10" id="path155" d="m68.375999,56.729c-6.015999,-3.327999 -3.977997,-13.292 -6.687,-18.706001c-3.044998,-6.084 2.741001,-13.587999 7.578999,-16.032999"/>
  <path fill-rule="evenodd" clip-rule="evenodd" fill="#181819" id="path157" d="m120.091003,140.457993c-1.276001,5.375992 -3.280006,13.457993 -10.699005,12.470993c-2.089996,-0.276993 -4.130997,-2.453995 -5.795998,-3.562988c-2.640999,-1.758011 1.337997,-4.420013 1.337997,-7.125c0,-3.190002 12.535004,-1.783005 15.157005,-1.783005"/>
  <path fill="none" stroke="#000000" stroke-width="1.2249" stroke-linecap="square" stroke-miterlimit="10" id="path159" d="m120.091003,140.457993c-1.276001,5.375992 -3.280006,13.457993 -10.699005,12.470993c-2.089996,-0.276993 -4.130997,-2.453995 -5.795998,-3.562988c-2.640999,-1.758011 1.337997,-4.420013 1.337997,-7.125c0,-3.190002 12.535004,-1.783005 15.157005,-1.783005"/>
  <path fill="none" stroke="#000000" stroke-width="1.2249" stroke-linecap="square" stroke-miterlimit="10" id="path161" d="m120.091003,140.457993c-1.276001,5.375992 -3.280006,13.457993 -10.699005,12.470993c-2.089996,-0.276993 -4.130997,-2.453995 -5.795998,-3.562988c-2.640999,-1.758011 1.337997,-4.420013 1.337997,-7.125c0,-3.190002 12.535004,-1.783005 15.157005,-1.783005"/>
  <path fill="none" stroke="#000000" stroke-width="1.2249" stroke-linecap="square" stroke-miterlimit="10" id="path163" d="m123.657997,136.895004c-3.945999,-0.678009 -9.225998,-3.488007 -12.482994,0"/>
  <path fill="none" stroke="#000000" stroke-width="1.2249" stroke-linecap="square" stroke-miterlimit="10" id="path165" d="m123.657997,136.895004c-3.945999,-0.678009 -9.225998,-3.488007 -12.482994,0"/>
  <path fill="none" stroke="#000000" stroke-width="1.2249" stroke-linecap="square" stroke-miterlimit="10" id="path167" d="m111.175003,136.895004c-4.148003,1.296997 -6.360001,5.983002 -8.024002,9.797989"/>
  <path fill="none" stroke="#000000" stroke-width="1.2249" stroke-linecap="square" stroke-miterlimit="10" id="path169" d="m111.175003,136.895004c-4.148003,1.296997 -6.360001,5.983002 -8.024002,9.797989"/>
  <path fill="none" stroke="#000000" stroke-width="1.2249" stroke-linecap="square" stroke-miterlimit="10" id="path171" d="m103.150002,146.692993c-1.288002,3.645996 -3.484001,6.820999 -6.242004,8.016998"/>
  <path fill="none" stroke="#000000" stroke-width="1.2249" stroke-linecap="square" stroke-miterlimit="10" id="path173" d="m103.150002,146.692993c-1.288002,3.645996 -3.484001,6.820999 -6.242004,8.016998"/>
  <path fill="none" stroke="#000000" stroke-width="1.2249" stroke-linecap="square" stroke-miterlimit="10" id="path175" d="m96.907997,154.710007c-0.818001,0.729004 -1.415001,1.628006 -1.781998,2.671997"/>
  <path fill="none" stroke="#000000" stroke-width="1.2249" stroke-linecap="square" stroke-miterlimit="10" id="path177" d="m96.907997,154.710007c-0.818001,0.729004 -1.415001,1.628006 -1.781998,2.671997"/>
  <line fill="none" stroke="#000000" stroke-width="1.2249" stroke-linecap="square" stroke-miterlimit="10" y2="0.612" y1="0.612" x2="0.612" x1="0.612" id="line179"/>
  <path fill="none" stroke="#000000" stroke-width="1.2249" stroke-linecap="square" stroke-miterlimit="10" id="path181" d="m122.765999,141.348999c-4.746002,-1.951996 -10.974998,-0.891006 -16.048996,-0.891006"/>
  <path fill="none" stroke="#000000" stroke-width="1.2249" stroke-linecap="square" stroke-miterlimit="10" id="path183" d="m122.765999,141.348999c-4.746002,-1.951996 -10.974998,-0.891006 -16.048996,-0.891006"/>
  <path fill="none" stroke="#000000" stroke-width="1.2249" stroke-linecap="square" stroke-miterlimit="10" id="path185" d="m122.765999,143.130997c0.295998,4.31601 -3.645996,10.992004 -7.133995,13.361008"/>
  <path fill="none" stroke="#000000" stroke-width="1.2249" stroke-linecap="square" stroke-miterlimit="10" id="path187" d="m122.765999,143.130997c0.295998,4.31601 -3.645996,10.992004 -7.133995,13.361008"/>
  <path fill="none" stroke="#000000" stroke-width="1.2249" stroke-linecap="square" stroke-miterlimit="10" id="path189" d="m115.632004,156.492004c-3.152,1.261993 -6.465004,0.890991 -9.807007,0.890991"/>
  <path fill="none" stroke="#000000" stroke-width="1.2249" stroke-linecap="square" stroke-miterlimit="10" id="path191" d="m115.632004,156.492004c-3.152,1.261993 -6.465004,0.890991 -9.807007,0.890991"/>
  <path fill="none" stroke="#000000" stroke-width="1.2249" stroke-linecap="square" stroke-miterlimit="10" id="path193" d="m105.824997,157.382004c-0.230995,-1.863007 -0.993996,-2.867996 -2.674995,-2.671997"/>
  <path fill="none" stroke="#000000" stroke-width="1.2249" stroke-linecap="square" stroke-miterlimit="10" id="path195" d="m105.824997,157.382004c-0.230995,-1.863007 -0.993996,-2.867996 -2.674995,-2.671997"/>
  <path fill="none" stroke="#000000" stroke-width="1.2249" stroke-linecap="square" stroke-miterlimit="10" id="path197" d="m103.150002,154.710007c-1.381004,0.401001 -2.272003,1.292007 -2.674004,2.671997"/>
  <path fill="none" stroke="#000000" stroke-width="1.2249" stroke-linecap="square" stroke-miterlimit="10" id="path199" d="m103.150002,154.710007c-1.381004,0.401001 -2.272003,1.292007 -2.674004,2.671997"/>
  <line fill="none" stroke="#000000" stroke-width="1.2249" stroke-linecap="square" stroke-miterlimit="10" y2="0.612" y1="0.612" x2="0.612" x1="0.612" id="line201"/>
  <path fill-rule="evenodd" clip-rule="evenodd" fill="#181819" id="path203" d="m28.254,150.255997c-10.581999,6.029007 -13.381,-1.229996 -16.049999,-10.688004c0.454,0.75 0.573999,1.065002 0.891999,1.782013c7.240001,-3.713013 13.169,2.412994 15.158,8.905991"/>
  <path fill="none" stroke="#000000" stroke-width="1.2249" stroke-linecap="square" stroke-miterlimit="10" id="path205" d="m28.254,150.255997c-10.581999,6.029007 -13.381,-1.229996 -16.049999,-10.688004c0.454,0.75 0.573999,1.065002 0.891999,1.782013c7.240001,-3.713013 13.169,2.412994 15.158,8.905991"/>
  <path fill="none" stroke="#000000" stroke-width="1.2249" stroke-linecap="square" stroke-miterlimit="10" id="path207" d="m28.254,150.255997c-10.581999,6.029007 -13.381,-1.229996 -16.049999,-10.688004c0.454,0.75 0.573999,1.065002 0.891999,1.782013c7.240001,-3.713013 13.169,2.412994 15.158,8.905991"/>
  <path fill="none" stroke="#000000" stroke-width="1.2249" stroke-linecap="square" stroke-miterlimit="10" id="path209" d="m31.82,151.147003c-2.150999,0.279999 -3.73,-0.645996 -4.458,-2.671997"/>
  <path fill="none" stroke="#000000" stroke-width="1.2249" stroke-linecap="square" stroke-miterlimit="10" id="path211" d="m31.82,151.147003c-2.150999,0.279999 -3.73,-0.645996 -4.458,-2.671997"/>
  <path fill="none" stroke="#000000" stroke-width="1.2249" stroke-linecap="square" stroke-miterlimit="10" id="path213" d="m27.362,148.475006c-0.25,-2.817001 -1.736,-5.265991 -4.458,-6.235001"/>
  <path fill="none" stroke="#000000" stroke-width="1.2249" stroke-linecap="square" stroke-miterlimit="10" id="path215" d="m27.362,148.475006c-0.25,-2.817001 -1.736,-5.265991 -4.458,-6.235001"/>
  <path fill="none" stroke="#000000" stroke-width="1.2249" stroke-linecap="square" stroke-miterlimit="10" id="path217" d="m22.903,142.240005c-3.014999,-2.138 -6.451,-2.270996 -9.808,-0.890991"/>
  <path fill="none" stroke="#000000" stroke-width="1.2249" stroke-linecap="square" stroke-miterlimit="10" id="path219" d="m22.903,142.240005c-3.014999,-2.138 -6.451,-2.270996 -9.808,-0.890991"/>
  <path fill="none" stroke="#000000" stroke-width="1.2249" stroke-linecap="square" stroke-miterlimit="10" id="path221" d="m13.095,141.348999c-1.709001,0.761993 -3.492001,1.057999 -5.35,0.891006"/>
  <path fill="none" stroke="#000000" stroke-width="1.2249" stroke-linecap="square" stroke-miterlimit="10" id="path223" d="m13.095,141.348999c-1.709001,0.761993 -3.492001,1.057999 -5.35,0.891006"/>
  <line fill="none" stroke="#000000" stroke-width="1.2249" stroke-linecap="square" stroke-miterlimit="10" y2="0.612" y1="0.612" x2="0.612" x1="0.612" id="line225"/>
  <path fill="none" stroke="#000000" stroke-width="1.2249" stroke-linecap="square" stroke-miterlimit="10" id="path227" d="m24.687,142.240005c-3.478001,-2.457001 -7.161001,-9.983002 -12.483,-6.235001"/>
  <path fill="none" stroke="#000000" stroke-width="1.2249" stroke-linecap="square" stroke-miterlimit="10" id="path229" d="m24.687,142.240005c-3.478001,-2.457001 -7.161001,-9.983002 -12.483,-6.235001"/>
  <path fill="none" stroke="#000000" stroke-width="1.2249" stroke-linecap="square" stroke-miterlimit="10" id="path231" d="m23.795,160.945007c-2.604,-1.550995 -4.74,-4 -7.132999,-5.345001"/>
  <path fill="none" stroke="#000000" stroke-width="1.2249" stroke-linecap="square" stroke-miterlimit="10" id="path233" d="m23.795,160.945007c-2.604,-1.550995 -4.74,-4 -7.132999,-5.345001"/>
  <line fill="none" stroke="#000000" stroke-width="1.2249" stroke-linecap="square" stroke-miterlimit="10" y2="0.612" y1="0.612" x2="0.612" x1="0.612" id="line235"/>
  <path fill="none" stroke="#000000" stroke-width="1.2249" stroke-linecap="square" stroke-miterlimit="10" id="path237" d="m34.494999,136.895004c-0.649998,4.561996 2.715,10.543991 6.241001,13.360992"/>
  <path fill="none" stroke="#000000" stroke-width="1.2249" stroke-linecap="square" stroke-miterlimit="10" id="path239" d="m34.494999,136.895004c-0.649998,4.561996 2.715,10.543991 6.241001,13.360992"/>
  <path fill="none" stroke="#000000" stroke-width="1.2249" stroke-linecap="square" stroke-miterlimit="10" id="path241" d="m40.736,150.255997c4.077,4.007004 2.191002,8.548004 1.784,13.362"/>
  <path fill="none" stroke="#000000" stroke-width="1.2249" stroke-linecap="square" stroke-miterlimit="10" id="path243" d="m40.736,150.255997c4.077,4.007004 2.191002,8.548004 1.784,13.362"/>
  <path fill="none" stroke="#000000" stroke-width="1.2249" stroke-linecap="square" stroke-miterlimit="10" id="path245" d="m42.52,163.617996c-2.718002,4.945999 -2.507,13.669006 -3.567001,19.596008c-1.087997,6.084991 -5.25,15.912003 -0.890999,21.376999"/>
  <path fill="none" stroke="#000000" stroke-width="1.2249" stroke-linecap="square" stroke-miterlimit="10" id="path247" d="m42.52,163.617996c-2.718002,4.945999 -2.507,13.669006 -3.567001,19.596008c-1.087997,6.084991 -5.25,15.912003 -0.890999,21.376999"/>
  <path fill="none" stroke="#000000" stroke-width="1.2249" stroke-linecap="square" stroke-miterlimit="10" id="path249" d="m38.061001,204.591003c-3.521,6.084991 -8.047001,19.931992 -7.133001,26.722"/>
  <path fill="none" stroke="#000000" stroke-width="1.2249" stroke-linecap="square" stroke-miterlimit="10" id="path251" d="m38.061001,204.591003c-3.521,6.084991 -8.047001,19.931992 -7.133001,26.722"/>
  <line fill="none" stroke="#000000" stroke-width="1.2249" stroke-linecap="square" stroke-miterlimit="10" y2="0.612" y1="0.612" x2="0.612" x1="0.612" id="line253"/>
  <path fill="none" stroke="#000000" stroke-width="1.2249" stroke-linecap="square" stroke-miterlimit="10" id="path255" d="m88.884003,141.348999c-0.600006,7.302002 -8.510002,7.927002 -11.591003,13.361008"/>
  <path fill="none" stroke="#000000" stroke-width="1.2249" stroke-linecap="square" stroke-miterlimit="10" id="path257" d="m88.884003,141.348999c-0.600006,7.302002 -8.510002,7.927002 -11.591003,13.361008"/>
  <path fill="none" stroke="#000000" stroke-width="1.2249" stroke-linecap="square" stroke-miterlimit="10" id="path259" d="m77.292999,154.710007c-2.603996,5.197006 -4.222,13.681 -1.783997,19.596008"/>
  <path fill="none" stroke="#000000" stroke-width="1.2249" stroke-linecap="square" stroke-miterlimit="10" id="path261" d="m77.292999,154.710007c-2.603996,5.197006 -4.222,13.681 -1.783997,19.596008"/>
  <path fill="none" stroke="#000000" stroke-width="1.2249" stroke-linecap="square" stroke-miterlimit="10" id="path263" d="m75.510002,174.306c0,7.895996 -2.384003,15.483994 -1.783005,23.158997"/>
  <path fill="none" stroke="#000000" stroke-width="1.2249" stroke-linecap="square" stroke-miterlimit="10" id="path265" d="m75.510002,174.306c0,7.895996 -2.384003,15.483994 -1.783005,23.158997"/>
  <path fill="none" stroke="#000000" stroke-width="1.2249" stroke-linecap="square" stroke-miterlimit="10" id="path267" d="m73.726997,197.464996c-0.750999,13.871002 8.229004,27.917007 4.458,41.865005"/>
  <path fill="none" stroke="#000000" stroke-width="1.2249" stroke-linecap="square" stroke-miterlimit="10" id="path269" d="m73.726997,197.464996c-0.750999,13.871002 8.229004,27.917007 4.458,41.865005"/>
  <path fill="none" stroke="#000000" stroke-width="1.2249" stroke-linecap="square" stroke-miterlimit="10" id="path271" d="m78.184998,239.330002c2.965004,2.815994 8.325005,2.852997 8.025002,8.016998"/>
  <path fill="none" stroke="#000000" stroke-width="1.2249" stroke-linecap="square" stroke-miterlimit="10" id="path273" d="m78.184998,239.330002c2.965004,2.815994 8.325005,2.852997 8.025002,8.016998"/>
  <path fill="none" stroke="#000000" stroke-width="1.2249" stroke-linecap="square" stroke-miterlimit="10" id="path275" d="m86.209999,247.347c2.351997,7.063004 1.784004,14.727005 1.784004,22.268997"/>
  <path fill="none" stroke="#000000" stroke-width="1.2249" stroke-linecap="square" stroke-miterlimit="10" id="path277" d="m86.209999,247.347c2.351997,7.063004 1.784004,14.727005 1.784004,22.268997"/>
  <path fill="none" stroke="#000000" stroke-width="1.2249" stroke-linecap="square" stroke-miterlimit="10" id="path279" d="m87.994003,269.61499c-2.525002,5.042999 -6.313004,8.628998 -8.917,13.359985"/>
  <path fill="none" stroke="#000000" stroke-width="1.2249" stroke-linecap="square" stroke-miterlimit="10" id="path281" d="m87.994003,269.61499c-2.525002,5.042999 -6.313004,8.628998 -8.917,13.359985"/>
  <path fill="none" stroke="#000000" stroke-width="1.2249" stroke-linecap="square" stroke-miterlimit="10" id="path283" d="m79.075996,282.976013c0,5.575989 -0.483994,10.317993 -2.674995,15.143005"/>
  <path fill="none" stroke="#000000" stroke-width="1.2249" stroke-linecap="square" stroke-miterlimit="10" id="path285" d="m79.075996,282.976013c0,5.575989 -0.483994,10.317993 -2.674995,15.143005"/>
  <line fill="none" stroke="#000000" stroke-width="1.2249" stroke-linecap="square" stroke-miterlimit="10" y2="0.612" y1="0.612" x2="0.612" x1="0.612" id="line287"/>
  <path fill="none" stroke="#000000" stroke-width="1.2249" stroke-linecap="square" stroke-miterlimit="10" id="path289" d="m76.401001,298.118011c2.104996,-1.244995 4.700996,-3.026001 7.132996,-3.562012c-0.594994,0.59201 -1.18,1.197021 -1.783997,1.779022"/>
  <path fill="none" stroke="#000000" stroke-width="1.2249" stroke-linecap="square" stroke-miterlimit="10" id="path291" d="m76.401001,298.118011c2.104996,-1.244995 4.700996,-3.026001 7.132996,-3.562012c-0.594994,0.59201 -1.18,1.197021 -1.783997,1.779022"/>
  <path fill="none" stroke="#000000" stroke-width="1.2249" stroke-linecap="square" stroke-miterlimit="10" id="path293" d="m81.750999,296.335999c-7.345001,6.067017 -18.856998,11.220001 -28.531998,9.799988"/>
  <path fill="none" stroke="#000000" stroke-width="1.2249" stroke-linecap="square" stroke-miterlimit="10" id="path295" d="m81.750999,296.335999c-7.345001,6.067017 -18.856998,11.220001 -28.531998,9.799988"/>
  <path fill="none" stroke="#000000" stroke-width="1.2249" stroke-linecap="square" stroke-miterlimit="10" id="path297" d="m53.219002,306.135986c-7.069,-0.014008 -17.621002,-2.776001 -22.291002,-6.235992"/>
  <path fill="none" stroke="#000000" stroke-width="1.2249" stroke-linecap="square" stroke-miterlimit="10" id="path299" d="m53.219002,306.135986c-7.069,-0.014008 -17.621002,-2.776001 -22.291002,-6.235992"/>
  <path fill="none" stroke="#000000" stroke-width="1.2249" stroke-linecap="square" stroke-miterlimit="10" id="path301" d="m73.726997,201.028c-3.388,4.395004 -4.099998,11.490005 -8.916,14.251999"/>
  <path fill="none" stroke="#000000" stroke-width="1.2249" stroke-linecap="square" stroke-miterlimit="10" id="path303" d="m73.726997,201.028c-3.388,4.395004 -4.099998,11.490005 -8.916,14.251999"/>
  <path fill="none" stroke="#000000" stroke-width="1.2249" stroke-linecap="square" stroke-miterlimit="10" id="path305" d="m64.810997,215.279999c0,7.859009 0.863007,15.804001 0.891006,23.158997"/>
  <path fill="none" stroke="#000000" stroke-width="1.2249" stroke-linecap="square" stroke-miterlimit="10" id="path307" d="m64.810997,215.279999c0,7.859009 0.863007,15.804001 0.891006,23.158997"/>
  <line fill="none" stroke="#000000" stroke-width="1.2249" stroke-linecap="square" stroke-miterlimit="10" y2="0.612" y1="0.612" x2="0.612" x1="0.612" id="line309"/>
  <path fill="none" stroke="#000000" stroke-width="1.2249" stroke-linecap="square" stroke-miterlimit="10" id="path311" d="m37.168999,204.591003c2.208,1.699997 4.134003,3.645996 4.458,6.235992"/>
  <path fill="none" stroke="#000000" stroke-width="1.2249" stroke-linecap="square" stroke-miterlimit="10" id="path313" d="m37.168999,204.591003c2.208,1.699997 4.134003,3.645996 4.458,6.235992"/>
  <path fill="none" stroke="#000000" stroke-width="1.2249" stroke-linecap="square" stroke-miterlimit="10" id="path315" d="m41.627998,210.826996c0,8.119003 -0.625999,16.207001 -0.891998,24.049011"/>
  <path fill="none" stroke="#000000" stroke-width="1.2249" stroke-linecap="square" stroke-miterlimit="10" id="path317" d="m41.627998,210.826996c0,8.119003 -0.625999,16.207001 -0.891998,24.049011"/>
  <line fill="none" stroke="#000000" stroke-width="1.2249" stroke-linecap="square" stroke-miterlimit="10" y2="0.612" y1="0.612" x2="0.612" x1="0.612" id="line319"/>
  <path fill-rule="evenodd" clip-rule="evenodd" fill="#2E1F0E" id="path321" d="m67.485001,255.363007c12.833,-3.442001 21.425003,11.98999 9.808998,20.487c-4.598999,3.363007 -10.794998,2.063019 -8.471001,-4.898987c2.175003,-6.517029 6.491005,-10.795013 -1.337997,-15.588013"/>
  <path fill="none" stroke="#000000" stroke-width="1.2249" stroke-linecap="square" stroke-miterlimit="10" id="path323" d="m67.485001,255.363007c12.833,-3.442001 21.425003,11.98999 9.808998,20.487c-4.598999,3.363007 -10.794998,2.063019 -8.471001,-4.898987c2.175003,-6.517029 6.491005,-10.795013 -1.337997,-15.588013"/>
  <path fill="none" stroke="#000000" stroke-width="1.2249" stroke-linecap="square" stroke-miterlimit="10" id="path325" d="m67.485001,255.363007c12.833,-3.442001 21.425003,11.98999 9.808998,20.487c-4.598999,3.363007 -10.794998,2.063019 -8.471001,-4.898987c2.175003,-6.517029 6.491005,-10.795013 -1.337997,-15.588013"/>
  <path fill-rule="evenodd" clip-rule="evenodd" fill="#2E1F0E" id="path327" d="m35.386002,253.582001c-3.501001,0.761002 -10.699001,2.182007 -10.699001,7.125c0,5.020996 1.574999,15.294006 6.240999,17.815002c1.198999,0.647003 4.639002,1.600006 5.796,0.444c3.620003,-3.61499 0.781002,-3.002991 -0.891998,-8.015991c-2.375,-7.118011 -8.087,-10.340027 -0.445999,-17.368011"/>
  <path fill="none" stroke="#000000" stroke-width="1.2249" stroke-linecap="square" stroke-miterlimit="10" id="path329" d="m35.386002,253.582001c-3.501001,0.761002 -10.699001,2.182007 -10.699001,7.125c0,5.020996 1.574999,15.294006 6.240999,17.815002c1.198999,0.647003 4.639002,1.600006 5.796,0.444c3.620003,-3.61499 0.781002,-3.002991 -0.891998,-8.015991c-2.375,-7.118011 -8.087,-10.340027 -0.445999,-17.368011"/>
  <path fill="none" stroke="#000000" stroke-width="1.2249" stroke-linecap="square" stroke-miterlimit="10" id="path331" d="m35.386002,253.582001c-3.501001,0.761002 -10.699001,2.182007 -10.699001,7.125c0,5.020996 1.574999,15.294006 6.240999,17.815002c1.198999,0.647003 4.639002,1.600006 5.796,0.444c3.620003,-3.61499 0.781002,-3.002991 -0.891998,-8.015991c-2.375,-7.118011 -8.087,-10.340027 -0.445999,-17.368011"/>
  <path fill="none" stroke="#000000" stroke-width="1.2249" stroke-linecap="square" stroke-miterlimit="10" id="path333" d="m63.027,255.363007c-1.116001,3.450012 -4.362,5.645996 -6.241001,8.907013"/>
  <path fill="none" stroke="#000000" stroke-width="1.2249" stroke-linecap="square" stroke-miterlimit="10" id="path335" d="m63.027,255.363007c-1.116001,3.450012 -4.362,5.645996 -6.241001,8.907013"/>
  <path fill="none" stroke="#000000" stroke-width="1.2249" stroke-linecap="square" stroke-miterlimit="10" id="path337" d="m56.785999,264.270996c-0.979,0 -0.979,0 0,0"/>
  <path fill="none" stroke="#000000" stroke-width="1.2249" stroke-linecap="square" stroke-miterlimit="10" id="path339" d="m56.785999,264.270996c-0.979,0 -0.979,0 0,0"/>
  <path fill="none" stroke="#000000" stroke-width="1.2249" stroke-linecap="square" stroke-miterlimit="10" id="path341" d="m56.785999,264.270996c2.959,4.59201 2.674,9.007019 2.674,14.252014"/>
  <path fill="none" stroke="#000000" stroke-width="1.2249" stroke-linecap="square" stroke-miterlimit="10" id="path343" d="m56.785999,264.270996c2.959,4.59201 2.674,9.007019 2.674,14.252014"/>
  <line fill="none" stroke="#000000" stroke-width="1.2249" stroke-linecap="square" stroke-miterlimit="10" y2="0.612" y1="0.612" x2="0.612" x1="0.612" id="line345"/>
  <path fill="none" stroke="#000000" stroke-width="1.2249" stroke-linecap="square" stroke-miterlimit="10" id="path347" d="m41.627998,254.473999c0.745003,3.09201 4.025002,5.674988 5.350002,8.904999"/>
  <path fill="none" stroke="#000000" stroke-width="1.2249" stroke-linecap="square" stroke-miterlimit="10" id="path349" d="m41.627998,254.473999c0.745003,3.09201 4.025002,5.674988 5.350002,8.904999"/>
  <path fill="none" stroke="#000000" stroke-width="1.2249" stroke-linecap="square" stroke-miterlimit="10" id="path351" d="m46.978001,263.378998c-1.68,4.653992 -1.783001,9.234009 -1.783001,14.252991"/>
  <path fill="none" stroke="#000000" stroke-width="1.2249" stroke-linecap="square" stroke-miterlimit="10" id="path353" d="m46.978001,263.378998c-1.68,4.653992 -1.783001,9.234009 -1.783001,14.252991"/>
  <path fill="none" stroke="#000000" stroke-width="1.2249" stroke-linecap="square" stroke-miterlimit="10" id="path355" d="m107.609001,246.455994c-1.583,4.220001 -3.833,8.248001 -5.348999,11.579987"/>
  <path fill="none" stroke="#000000" stroke-width="1.2249" stroke-linecap="square" stroke-miterlimit="10" id="path357" d="m107.609001,246.455994c-1.583,4.220001 -3.833,8.248001 -5.348999,11.579987"/>
  <path fill="none" stroke="#000000" stroke-width="1.2249" stroke-linecap="square" stroke-miterlimit="10" id="path359" d="m128.117004,186.776001c0.492996,6.634003 -3.525002,17.912003 -8.917007,22.268997"/>
  <path fill="none" stroke="#000000" stroke-width="1.2249" stroke-linecap="square" stroke-miterlimit="10" id="path361" d="m128.117004,186.776001c0.492996,6.634003 -3.525002,17.912003 -8.917007,22.268997"/>
  <path fill="none" stroke="#000000" stroke-width="1.2249" stroke-linecap="square" stroke-miterlimit="10" id="path363" d="m119.199997,209.044998c-4.009995,6.012009 -11.683998,15.615997 -11.590996,23.160004"/>
  <path fill="none" stroke="#000000" stroke-width="1.2249" stroke-linecap="square" stroke-miterlimit="10" id="path365" d="m119.199997,209.044998c-4.009995,6.012009 -11.683998,15.615997 -11.590996,23.160004"/>
  <path id="svg_3" d="m59.189827,97.688911c9.044724,12.69722 21.424225,-9.245544 15.410194,-19.266144c-4.63237,-3.986687 -75.350505,-101.754959 -77.266675,-103.244959l61.85648,122.511103z" stroke-linecap="square" stroke-linejoin="null" stroke-dasharray="null" stroke-width="1.2249" stroke="#000000" fill="url(#svg_2)"/>
  <line fill="none" stroke="#000000" stroke-width="1.2249" stroke-linecap="square" stroke-miterlimit="10" y2="0.612" y1="0.612" x2="0.612" x1="0.612" id="line367"/>
  <path fill="none" stroke="#000000" stroke-width="1.2249" stroke-linecap="square" stroke-miterlimit="10" id="path369" d="m60.352001,315.93399c2.966999,26.618011 17.902996,54.483002 24.074001,79.277008"/>
  <path fill="none" stroke="#000000" stroke-width="1.2249" stroke-linecap="square" stroke-miterlimit="10" id="path371" d="m60.352001,315.93399c2.966999,26.618011 17.902996,54.483002 24.074001,79.277008"/>
  <path fill="none" stroke="#000000" stroke-width="1.2249" stroke-linecap="square" stroke-miterlimit="10" id="path373" d="m145.949005,288.321014c-0.664993,7.143982 0.893005,14.725006 0.893005,22.268982c0,9.915009 -0.893005,20.261017 -0.893005,29.83902c0,15.54599 0.324005,35.703003 -6.241989,49.437988"/>
  <path fill="none" stroke="#000000" stroke-width="1.2249" stroke-linecap="square" stroke-miterlimit="10" id="path375" d="m139.707001,389.865997c0,0.890015 0,1.778992 0,2.67099"/>
  <path fill="none" stroke="#000000" stroke-width="1.2249" stroke-linecap="square" stroke-miterlimit="10" id="path377" d="m145.949005,288.321014c-1.623993,17.490997 1.343002,37.25 0,55.225006c-0.73999,9.914978 -1.319992,18.983002 -2.674988,28.503998c-0.944,6.636993 -3.428009,14.179993 -3.567001,20.487"/>
  <path id="svg_4" d="m64.294128,85.234566c-1.314735,-5.41301 -1.353157,-10.766502 1.102341,-10.766502c2.45549,0 4.444435,5.057953 4.444435,11.30233c0,6.24437 -3.640656,10.769241 -6.096161,10.769241c-2.455502,0 -0.815071,-4.723732 0.549385,-11.305069z" transform="rotate(32.3073 66.1603 85.5038)" stroke-linecap="square" stroke-linejoin="null" stroke-dasharray="null" stroke-width="0" stroke="#000000" fill="#e5e5e5"/>
  <path id="svg_5" d="m56.117207,72.793663c-1.147076,-4.297699 -1.180592,-8.548149 0.961761,-8.548149c2.142349,0 3.877644,4.0158 3.877644,8.973564c0,4.957764 -3.176365,8.550308 -5.318733,8.550308c-2.142353,0 -0.711128,-3.750435 0.479328,-8.975723z" transform="rotate(33.3215 57.7454 73.0075)" stroke-linecap="square" stroke-linejoin="null" stroke-dasharray="null" stroke-width="0" stroke="#000000" fill="#e5e5e5"/>
  <path id="svg_6" d="m50.084923,61.146404c-0.852497,-3.838753 -0.877407,-7.6353 0.714779,-7.6353c1.592182,0 2.881844,3.586952 2.881844,8.015282c0,4.428326 -2.360661,7.637226 -3.952854,7.637226c-1.59219,0 -0.528507,-3.349922 0.356232,-8.017208z" transform="rotate(32.3073 51.295 61.3373)" stroke-linecap="square" stroke-linejoin="null" stroke-dasharray="null" stroke-width="0" stroke="#000000" fill="#e5e5e5"/>
  <path id="svg_7" d="m41.723118,48.707687c-0.738052,-3.300224 -0.759613,-6.564163 0.618816,-6.564163c1.378426,0 2.494946,3.083748 2.494946,6.890842c0,3.807091 -2.043728,6.565826 -3.422173,6.565826c-1.378426,0 -0.457546,-2.879978 0.308411,-6.892506z" transform="rotate(32.3073 42.7707 48.8719)" stroke-linecap="square" stroke-linejoin="null" stroke-dasharray="null" stroke-width="0" stroke="#000000" fill="#e5e5e5"/>
  <path id="svg_8" d="m34.81551,36.52409c-0.43811,-2.52393 -0.450916,-5.020115 0.367332,-5.020115c0.818245,0 1.481018,2.358376 1.481018,5.269951c0,2.911572 -1.213177,5.021385 -2.031425,5.021385c-0.818245,0 -0.271603,-2.202538 0.183075,-5.271221z" transform="rotate(32.3073 35.4374 36.6496)" stroke-linecap="square" stroke-linejoin="null" stroke-dasharray="null" stroke-width="0" stroke="#000000" fill="#e5e5e5"/>
  <path id="svg_9" d="m27.680828,25.098341c-0.376444,-2.14798 -0.387444,-4.272343 0.315632,-4.272343c0.703077,0 1.272558,2.007084 1.272558,4.484964c0,2.477877 -1.042416,4.273424 -1.745491,4.273424c-0.703081,0 -0.233381,-1.874458 0.157301,-4.486046z" transform="rotate(32.3073 28.2152 25.2052)" stroke-linecap="square" stroke-linejoin="null" stroke-dasharray="null" stroke-width="0" stroke="#000000" fill="#e5e5e5"/>
  <path id="svg_10" d="m19.820881,11.79493c-0.277782,-1.546455 -0.285906,-3.075907 0.232903,-3.075907c0.518795,0 0.939024,1.445017 0.939024,3.228986c0,1.783969 -0.769205,3.076686 -1.288008,3.076686c-0.518806,0 -0.172215,-1.349529 0.116081,-3.229765z" transform="rotate(32.3073 20.2152 11.8719)" stroke-linecap="square" stroke-linejoin="null" stroke-dasharray="null" stroke-width="0" stroke="#000000" fill="#e5e5e5"/>
 </g>
</svg>